<svg width="25" height="26" viewBox="0 0 25 26" fill="none" xmlns="http://www.w3.org/2000/svg">
<path fill-rule="evenodd" clip-rule="evenodd" d="M12.5 24.25C18.7131 24.25 23.75 19.2131 23.75 13C23.75 6.78688 18.7131 1.75 12.5 1.75C6.28688 1.75 1.25 6.78688 1.25 13C1.25 19.2131 6.28688 24.25 12.5 24.25ZM12.5 25.5C19.4037 25.5 25 19.9037 25 13C25 6.09625 19.4037 0.5 12.5 0.5C5.59625 0.5 0 6.09625 0 13C0 19.9037 5.59625 25.5 12.5 25.5Z" fill="white"/>
<path d="M5 20.2687C5 19.6231 5.4825 19.0775 6.125 19.0062C10.9469 18.4725 14.075 18.5206 18.8862 19.0181C19.1265 19.0433 19.3542 19.138 19.5416 19.2905C19.7289 19.443 19.8678 19.6468 19.9412 19.8769C20.0147 20.1071 20.0195 20.3536 19.9551 20.5865C19.8908 20.8193 19.76 21.0284 19.5788 21.1881C13.9006 26.1375 10.6556 26.0694 5.4 21.1931C5.14375 20.9556 5 20.6175 5 20.2687Z" fill="white"/>
<path fill-rule="evenodd" clip-rule="evenodd" d="M18.8219 19.6394C14.0488 19.1456 10.9656 19.0994 6.19313 19.6275C6.03603 19.6458 5.8912 19.7214 5.78638 19.8398C5.68155 19.9583 5.62409 20.1112 5.625 20.2694C5.625 20.4481 5.69938 20.6175 5.825 20.735C8.43 23.1512 10.4038 24.2431 12.3331 24.25C14.2694 24.2569 16.3494 23.1737 19.1681 20.7175C19.2577 20.6378 19.3221 20.5338 19.3537 20.4181C19.3852 20.3025 19.3825 20.1801 19.3458 20.066C19.3092 19.9519 19.2401 19.8508 19.1471 19.7752C19.0541 19.6996 18.9411 19.652 18.8219 19.6394ZM6.05625 18.385C10.9288 17.8456 14.1025 17.8944 18.9513 18.3962C19.3127 18.434 19.6553 18.5763 19.9371 18.8057C20.2189 19.0351 20.4277 19.3418 20.538 19.688C20.6482 20.0343 20.6551 20.4052 20.5577 20.7554C20.4604 21.1055 20.2631 21.4196 19.99 21.6594C17.1306 24.1519 14.7494 25.5094 12.3294 25.5C9.9025 25.4912 7.62625 24.1106 4.97563 21.6512C4.78585 21.4745 4.63456 21.2605 4.53122 21.0226C4.42787 20.7847 4.3747 20.5281 4.375 20.2687C4.37409 19.8028 4.54513 19.3528 4.85536 19.0051C5.16558 18.6574 5.59318 18.437 6.05625 18.385Z" fill="white"/>
<path d="M17.5 10.5C17.5 11.8261 16.9732 13.0979 16.0355 14.0355C15.0979 14.9732 13.8261 15.5 12.5 15.5C11.1739 15.5 9.90215 14.9732 8.96447 14.0355C8.02678 13.0979 7.5 11.8261 7.5 10.5C7.5 9.17392 8.02678 7.90215 8.96447 6.96447C9.90215 6.02678 11.1739 5.5 12.5 5.5C13.8261 5.5 15.0979 6.02678 16.0355 6.96447C16.9732 7.90215 17.5 9.17392 17.5 10.5Z" fill="white"/>
<path fill-rule="evenodd" clip-rule="evenodd" d="M12.5 14.25C13.4946 14.25 14.4484 13.8549 15.1517 13.1517C15.8549 12.4484 16.25 11.4946 16.25 10.5C16.25 9.50544 15.8549 8.55161 15.1517 7.84835C14.4484 7.14509 13.4946 6.75 12.5 6.75C11.5054 6.75 10.5516 7.14509 9.84835 7.84835C9.14509 8.55161 8.75 9.50544 8.75 10.5C8.75 11.4946 9.14509 12.4484 9.84835 13.1517C10.5516 13.8549 11.5054 14.25 12.5 14.25ZM12.5 15.5C13.8261 15.5 15.0979 14.9732 16.0355 14.0355C16.9732 13.0979 17.5 11.8261 17.5 10.5C17.5 9.17392 16.9732 7.90215 16.0355 6.96447C15.0979 6.02678 13.8261 5.5 12.5 5.5C11.1739 5.5 9.90215 6.02678 8.96447 6.96447C8.02678 7.90215 7.5 9.17392 7.5 10.5C7.5 11.8261 8.02678 13.0979 8.96447 14.0355C9.90215 14.9732 11.1739 15.5 12.5 15.5Z" fill="white"/>
</svg>
