<svg width="22" height="22" viewBox="0 0 22 22" fill="none" xmlns="http://www.w3.org/2000/svg">
<path fill-rule="evenodd" clip-rule="evenodd" d="M15.4999 20.8391L15.4619 20.8471H15.4579C15.4419 20.8511 15.4269 20.8551 15.4109 20.8571L15.4089 20.8581L15.4589 20.8481L15.4999 20.8381V20.8391Z" stroke="#EDEAEC"/>
<path d="M21.0002 13.9999C20.4162 13.9999 19.9242 13.9999 19.5002 14.0079C18.5722 14.0239 17.9722 14.0769 17.4552 14.2449C16.7049 14.4888 16.0229 14.9067 15.4649 15.4646C14.907 16.0225 14.4891 16.7046 14.2452 17.4549C14.0772 17.9719 14.0252 18.5719 14.0082 19.4999C14.0002 19.9239 14.0002 20.4159 14.0002 20.9999C14.4832 20.9999 14.9542 20.9509 15.4102 20.8579L15.4582 20.8479H15.4622L15.5002 20.8379C16.8068 20.5504 18.0037 19.895 18.9497 18.9491C19.8958 18.0032 20.5514 16.8064 20.8392 15.4999C20.9442 15.0169 21.0002 14.5149 21.0002 13.9999Z" stroke="#EDEAEC"/>
<path fill-rule="evenodd" clip-rule="evenodd" d="M1 11C1 15.714 1 18.071 2.464 19.535C3.93 21 6.286 21 11 21H12.5V20.74C12.499 19.133 12.498 17.975 12.818 16.991C12.888 16.779 12.967 16.571 13.057 16.368C12.4007 16.6209 11.7033 16.7504 11 16.75C9.75743 16.7491 8.5484 16.3468 7.553 15.603C7.39307 15.4844 7.28679 15.3072 7.25754 15.1103C7.22828 14.9134 7.27845 14.7129 7.397 14.553C7.51555 14.3931 7.69278 14.2868 7.88969 14.2575C8.0866 14.2283 8.28707 14.2784 8.447 14.397C9.175 14.937 10.054 15.25 11 15.25C11.946 15.25 12.825 14.937 13.553 14.398C13.6785 14.3048 13.8301 14.2531 13.9864 14.2502C14.1428 14.2474 14.2961 14.2934 14.425 14.382C15.1464 13.6674 16.0252 13.1317 16.991 12.818C17.975 12.498 19.133 12.499 20.741 12.5H21V11C21 6.286 21 3.929 19.535 2.464C18.072 1 15.714 1 11 1C6.286 1 3.929 1 2.464 2.464C1 3.93 1 6.286 1 11ZM14 11C14.552 11 15 10.328 15 9.5C15 8.672 14.552 8 14 8C13.448 8 13 8.672 13 9.5C13 10.328 13.448 11 14 11ZM8 11C8.552 11 9 10.328 9 9.5C9 8.672 8.552 8 8 8C7.448 8 7 8.672 7 9.5C7 10.328 7.448 11 8 11Z" stroke="#EDEAEC"/>
</svg>
