<svg xmlns="http://www.w3.org/2000/svg" width="26" height="26" id="yoga"><path d="M13 0C5.826 0 0 5.826 0 13s5.826 13 13 13 13-5.826 13-13S20.174 0 13 0zm0 1.002c6.633 0 12 5.365 12 11.998 0 6.633-5.367 12-12 12S1 19.633 1 13 6.367 1.002 13 1.002zM13 5a2.508 2.508 0 0 0-2.5 2.5c0 1.375 1.125 2.5 2.5 2.5s2.5-1.125 2.5-2.5S14.375 5 13 5zm0 1c.834 0 1.5.666 1.5 1.5S13.834 9 13 9s-1.5-.666-1.5-1.5S12.166 6 13 6zm-.12 4.344c-.963.049-1.852.512-2.546 1.207a.5.5 0 0 0-.053.062l-3.125 4.375a.5.5 0 0 0-.002 0c-.222.314-.277.72-.16 1.063.118.343.388.617.736.775.689.314 1.538.192 1.99-.445L11 15.574V18H7.5c-.822 0-1.5.678-1.5 1.5S6.678 21 7.5 21h11c.822 0 1.5-.678 1.5-1.5s-.678-1.5-1.5-1.5H15v-2.518l1.342 1.9c.453.638 1.302.76 1.99.446.348-.158.619-.432.736-.775.118-.343.063-.75-.16-1.063a.5.5 0 0 0-.002 0l-3.125-4.375a.5.5 0 0 0-.052-.064c-.871-.87-1.884-1.256-2.848-1.207zm.052 1c.668-.034 1.372.209 2.074.904l3.088 4.324h-.002c.052.073.05.104.031.157-.018.053-.071.13-.205.19-.275.126-.664.02-.76-.114l-2.25-3.186a.5.5 0 0 0-.908.287V18.5a.5.5 0 0 0 .5.5h4c.286 0 .5.214.5.5 0 .286-.214.5-.5.5h-11a.488.488 0 0 1-.5-.5c0-.286.214-.5.5-.5h4a.5.5 0 0 0 .5-.5V14a.5.5 0 0 0-.908-.287l-2.188 3.092c-.096.135-.484.24-.76.115-.133-.061-.186-.139-.205-.191-.018-.053-.02-.084.032-.157h-.002l3.084-4.318c.548-.544 1.21-.876 1.879-.91z" color="#000" font-family="sans-serif" font-weight="400" overflow="visible" style="line-height:normal;text-indent:0;text-align:start;text-decoration-line:none;text-decoration-style:solid;text-decoration-color:#000;text-transform:none;block-progression:tb;isolation:auto;mix-blend-mode:normal"></path></svg>