<svg width="26" height="24" viewBox="0 0 26 24" fill="none" xmlns="http://www.w3.org/2000/svg">
<path d="M23.0884 17.9393C23.7695 17.9393 24.3436 18.1769 24.8108 18.652C25.2781 19.1272 25.5077 19.6815 25.4998 20.315L15.9612 23.8786L7.64619 21.5029V10.8121H9.96253L18.5983 14.0075C19.216 14.253 19.5248 14.6964 19.5248 15.3379C19.5248 15.7101 19.3902 16.0348 19.121 16.3119C18.8517 16.5891 18.5112 16.7356 18.0994 16.7514H14.7734L12.6946 15.9556L12.3026 17.0722L14.7734 17.9393H23.0884ZM18.337 1.58241C19.1764 0.608362 20.2455 0.121338 21.5442 0.121338C22.6212 0.121338 23.5319 0.517293 24.2763 1.3092C25.0207 2.10111 25.4167 3.01181 25.4642 4.04129C25.4642 4.85696 25.0682 5.83101 24.2763 6.96344C23.4844 8.09587 22.7044 9.0422 21.9362 9.80243C21.1681 10.5627 19.9683 11.6911 18.337 13.1879C16.6898 11.6911 15.4782 10.5627 14.7021 9.80243C13.926 9.0422 13.146 8.09587 12.362 6.96344C11.578 5.83101 11.194 4.85696 11.2098 4.04129C11.2098 2.96429 11.5939 2.0536 12.362 1.3092C13.1302 0.564807 14.0567 0.168852 15.1416 0.121338C16.4087 0.121338 17.4738 0.608362 18.337 1.58241ZM0.5 10.8121H5.27046V23.8786H0.5V10.8121Z" fill="#204567"/>
</svg>
