<svg width="26" height="24" viewBox="0 0 26 24" fill="none" xmlns="http://www.w3.org/2000/svg">
<path d="M13 0.888916C14.5417 0.888916 15.7778 2.12503 15.7778 3.66669C15.7778 5.20836 14.5417 6.44447 13 6.44447C11.4583 6.44447 10.2222 5.20836 10.2222 3.66669C10.2222 2.12503 11.4722 0.888916 13 0.888916ZM25.5 17.5556V14.7778C22.3889 14.7778 19.7222 13.4445 17.7222 11.0556L15.8611 8.83336C15.6027 8.52013 15.2781 8.26801 14.9107 8.09511C14.5433 7.92221 14.1422 7.83282 13.7361 7.83336H12.3056C11.4583 7.83336 10.6806 8.19447 10.1528 8.83336L8.29167 11.0556C6.27778 13.4445 3.61111 14.7778 0.5 14.7778V17.5556C4.34722 17.5556 7.70833 15.9306 10.2222 13.0417V16.1667L4.83333 18.3195C3.90278 18.6945 3.27778 19.6389 3.27778 20.625C3.27778 22 4.38889 23.1111 5.76389 23.1111H8.83333V22.4167C8.83333 21.4958 9.19916 20.6126 9.85032 19.9615C10.5015 19.3103 11.3847 18.9445 12.3056 18.9445H16.4722C16.8611 18.9445 17.1667 19.25 17.1667 19.6389C17.1667 20.0278 16.8611 20.3334 16.4722 20.3334H12.3056C11.1528 20.3334 10.2222 21.2639 10.2222 22.4167V23.1111H20.2361C21.6111 23.1111 22.7222 22 22.7222 20.625C22.7222 19.6389 22.0972 18.6945 21.1667 18.3195L15.7778 16.1667V13.0417C18.2917 15.9306 21.6528 17.5556 25.5 17.5556Z" fill="white"/>
</svg>
