<svg width="26" height="26" viewBox="0 0 26 26" fill="none" xmlns="http://www.w3.org/2000/svg">
<path fill-rule="evenodd" clip-rule="evenodd" d="M13 24.25C19.2131 24.25 24.25 19.2131 24.25 13C24.25 6.78688 19.2131 1.75 13 1.75C6.78688 1.75 1.75 6.78688 1.75 13C1.75 19.2131 6.78688 24.25 13 24.25ZM13 25.5C19.9037 25.5 25.5 19.9037 25.5 13C25.5 6.09625 19.9037 0.5 13 0.5C6.09625 0.5 0.5 6.09625 0.5 13C0.5 19.9037 6.09625 25.5 13 25.5Z" fill="white"/>
<path d="M5.5 20.2687C5.5 19.6231 5.9825 19.0775 6.625 19.0062C11.4469 18.4725 14.575 18.5206 19.3862 19.0181C19.6265 19.0433 19.8542 19.138 20.0416 19.2905C20.2289 19.443 20.3678 19.6468 20.4412 19.8769C20.5147 20.1071 20.5195 20.3536 20.4551 20.5865C20.3908 20.8193 20.26 21.0284 20.0788 21.1881C14.4006 26.1375 11.1556 26.0694 5.9 21.1931C5.64375 20.9556 5.5 20.6175 5.5 20.2687Z" fill="white"/>
<path fill-rule="evenodd" clip-rule="evenodd" d="M19.3219 19.6394C14.5488 19.1456 11.4656 19.0994 6.69313 19.6275C6.53603 19.6458 6.3912 19.7214 6.28638 19.8398C6.18155 19.9583 6.12409 20.1112 6.125 20.2694C6.125 20.4481 6.19938 20.6175 6.325 20.735C8.93 23.1512 10.9038 24.2431 12.8331 24.25C14.7694 24.2569 16.8494 23.1737 19.6681 20.7175C19.7577 20.6378 19.8221 20.5338 19.8537 20.4181C19.8852 20.3025 19.8825 20.1801 19.8458 20.066C19.8092 19.9519 19.7401 19.8508 19.6471 19.7752C19.5541 19.6996 19.4411 19.652 19.3219 19.6394ZM6.55625 18.385C11.4288 17.8456 14.6025 17.8944 19.4513 18.3962C19.8127 18.434 20.1553 18.5763 20.4371 18.8057C20.7189 19.0351 20.9277 19.3418 21.038 19.688C21.1482 20.0343 21.1551 20.4052 21.0577 20.7554C20.9604 21.1055 20.7631 21.4196 20.49 21.6594C17.6306 24.1519 15.2494 25.5094 12.8294 25.5C10.4025 25.4912 8.12625 24.1106 5.47563 21.6512C5.28585 21.4745 5.13456 21.2605 5.03122 21.0226C4.92787 20.7847 4.8747 20.5281 4.875 20.2687C4.87409 19.8028 5.04513 19.3528 5.35536 19.0051C5.66558 18.6574 6.09318 18.437 6.55625 18.385Z" fill="white"/>
<path d="M18 10.5C18 11.8261 17.4732 13.0979 16.5355 14.0355C15.5979 14.9732 14.3261 15.5 13 15.5C11.6739 15.5 10.4021 14.9732 9.46447 14.0355C8.52678 13.0979 8 11.8261 8 10.5C8 9.17392 8.52678 7.90215 9.46447 6.96447C10.4021 6.02678 11.6739 5.5 13 5.5C14.3261 5.5 15.5979 6.02678 16.5355 6.96447C17.4732 7.90215 18 9.17392 18 10.5Z" fill="white"/>
<path fill-rule="evenodd" clip-rule="evenodd" d="M13 14.25C13.9946 14.25 14.9484 13.8549 15.6517 13.1517C16.3549 12.4484 16.75 11.4946 16.75 10.5C16.75 9.50544 16.3549 8.55161 15.6517 7.84835C14.9484 7.14509 13.9946 6.75 13 6.75C12.0054 6.75 11.0516 7.14509 10.3483 7.84835C9.64509 8.55161 9.25 9.50544 9.25 10.5C9.25 11.4946 9.64509 12.4484 10.3483 13.1517C11.0516 13.8549 12.0054 14.25 13 14.25ZM13 15.5C14.3261 15.5 15.5979 14.9732 16.5355 14.0355C17.4732 13.0979 18 11.8261 18 10.5C18 9.17392 17.4732 7.90215 16.5355 6.96447C15.5979 6.02678 14.3261 5.5 13 5.5C11.6739 5.5 10.4021 6.02678 9.46447 6.96447C8.52678 7.90215 8 9.17392 8 10.5C8 11.8261 8.52678 13.0979 9.46447 14.0355C10.4021 14.9732 11.6739 15.5 13 15.5Z" fill="white"/>
</svg>
