<svg width="26" height="26" viewBox="0 0 26 26" fill="none" xmlns="http://www.w3.org/2000/svg">
<path fill-rule="evenodd" clip-rule="evenodd" d="M18.625 25.2989L18.5775 25.3089H18.5725C18.5525 25.3139 18.5338 25.3189 18.5138 25.3214L18.5113 25.3226L18.5738 25.3101L18.625 25.2976V25.2989Z" fill="white"/>
<path d="M25.5001 16.7499C24.7701 16.7499 24.1551 16.7499 23.6251 16.7599C22.4651 16.7799 21.7151 16.8462 21.0689 17.0562C20.1309 17.361 19.2784 17.8834 18.581 18.5808C17.8836 19.2782 17.3612 20.1307 17.0564 21.0687C16.8464 21.7149 16.7814 22.4649 16.7601 23.6249C16.7501 24.1549 16.7501 24.7699 16.7501 25.4999C17.3539 25.4999 17.9426 25.4387 18.5126 25.3224L18.5726 25.3099H18.5776L18.6251 25.2974C20.2583 24.938 21.7544 24.1187 22.937 22.9364C24.1196 21.754 24.9391 20.258 25.2989 18.6249C25.4301 18.0212 25.5001 17.3937 25.5001 16.7499Z" fill="white"/>
<path fill-rule="evenodd" clip-rule="evenodd" d="M0.5 13C0.5 18.8925 0.5 21.8387 2.33 23.6688C4.1625 25.5 7.1075 25.5 13 25.5H14.875V25.175C14.8737 23.1663 14.8725 21.7188 15.2725 20.4887C15.36 20.2237 15.4587 19.9638 15.5712 19.71C14.7509 20.0261 13.8792 20.188 13 20.1875C11.4468 20.1863 9.9355 19.6835 8.69125 18.7537C8.49134 18.6056 8.35849 18.384 8.32192 18.1379C8.28535 17.8917 8.34806 17.6412 8.49625 17.4412C8.64444 17.2413 8.86597 17.1085 9.11211 17.0719C9.35826 17.0354 9.60884 17.0981 9.80875 17.2463C10.7187 17.9213 11.8175 18.3125 13 18.3125C14.1825 18.3125 15.2813 17.9212 16.1913 17.2475C16.3482 17.1309 16.5376 17.0664 16.733 17.0628C16.9285 17.0592 17.1202 17.1168 17.2812 17.2275C18.183 16.3342 19.2815 15.6646 20.4887 15.2725C21.7188 14.8725 23.1662 14.8737 25.1762 14.875H25.5V13C25.5 7.1075 25.5 4.16125 23.6688 2.33C21.84 0.5 18.8925 0.5 13 0.5C7.1075 0.5 4.16125 0.5 2.33 2.33C0.5 4.1625 0.5 7.1075 0.5 13ZM16.75 13C17.44 13 18 12.16 18 11.125C18 10.09 17.44 9.25 16.75 9.25C16.06 9.25 15.5 10.09 15.5 11.125C15.5 12.16 16.06 13 16.75 13ZM9.25 13C9.94 13 10.5 12.16 10.5 11.125C10.5 10.09 9.94 9.25 9.25 9.25C8.56 9.25 8 10.09 8 11.125C8 12.16 8.56 13 9.25 13Z" fill="white"/>
</svg>
